<svg width="149" height="71" viewBox="0 0 149 71" fill="none" xmlns="http://www.w3.org/2000/svg">
<path d="M72 23.9739V0H148.29V70.8641H72V46.8902H73.7681V69.2214H146.522V1.64271H110.145H73.7681V23.9739H72Z" fill="white"/>
<g clip-path="url(#clip0_3130_2305)">
<g clip-path="url(#clip1_3130_2305)">
<g clip-path="url(#clip2_3130_2305)">
<g clip-path="url(#clip3_3130_2305)">
<g clip-path="url(#clip4_3130_2305)">
<g clip-path="url(#clip5_3130_2305)">
<g clip-path="url(#clip6_3130_2305)">
<path d="M7.25348 29.8784C8.08104 29.8784 8.81456 29.957 9.45403 30.1143C10.0935 30.2715 10.6013 30.4549 10.9775 30.6646C11.4853 30.9441 11.8953 31.3145 12.2075 31.7757C12.516 32.2404 12.6702 32.7785 12.6702 33.39C12.6702 34.1062 12.4163 34.709 11.9085 35.1981C11.4007 35.6873 10.7518 35.9319 9.96185 35.9319C9.1343 35.9319 8.49482 35.7135 8.04342 35.2768C7.59203 34.84 7.36633 34.2722 7.36633 33.5734C7.36633 32.9095 7.59767 32.3452 8.06035 31.8805C8.51927 31.4193 9.05906 31.1101 9.67973 30.9528C9.54808 30.8655 9.39197 30.7904 9.21141 30.7275C9.03461 30.6681 8.81456 30.6384 8.55124 30.6384C7.87415 30.6384 7.32495 30.8253 6.90365 31.1992C6.47858 31.5765 6.14944 32.0709 5.91622 32.6824C5.67923 33.2939 5.51372 33.949 5.41968 34.6478C5.32564 35.3466 5.27862 36.028 5.27862 36.6919C5.27862 37.9148 5.4573 38.8669 5.81465 39.5483C6.17201 40.2296 6.6234 40.7013 7.16884 40.9634C7.71428 41.2254 8.25972 41.3564 8.80515 41.3564C9.18132 41.3564 9.68914 41.2638 10.3286 41.0787C10.9681 40.897 11.5982 40.4043 12.2188 39.6007L12.6984 39.7579C12.4727 40.4567 12.1116 41.1503 11.6151 41.8386C11.1148 42.5304 10.4697 43.0982 9.67973 43.542C8.88979 43.9892 7.93057 44.2128 6.80208 44.2128C5.54194 44.2128 4.40028 43.9857 3.37712 43.5315C2.35019 43.0773 1.53203 42.326 0.922649 41.2778C0.309503 40.2296 0.00292969 38.8232 0.00292969 37.0587C0.00292969 35.3816 0.322669 34.0136 0.962146 32.9549C1.60162 31.8997 2.47244 31.1223 3.5746 30.6227C4.673 30.1265 5.89929 29.8784 7.25348 29.8784ZM21.4725 29.8784C22.9395 29.8784 24.2128 30.109 25.2924 30.5702C26.3757 31.035 27.2183 31.7914 27.8202 32.8396C28.4221 33.8879 28.723 35.2942 28.723 37.0587C28.723 38.8232 28.4221 40.2296 27.8202 41.2778C27.2183 42.326 26.3757 43.0773 25.2924 43.5315C24.2128 43.9857 22.9395 44.2128 21.4725 44.2128C20.0242 44.2128 18.7547 43.9857 17.6638 43.5315C16.5729 43.0773 15.7266 42.326 15.1247 41.2778C14.5228 40.2296 14.2219 38.8232 14.2219 37.0587C14.2219 35.2942 14.5228 33.8879 15.1247 32.8396C15.7266 31.7914 16.5729 31.035 17.6638 30.5702C18.7547 30.109 20.0242 29.8784 21.4725 29.8784ZM21.4725 30.4025C20.9082 30.4025 20.438 30.9266 20.0618 31.9749C19.6857 33.0231 19.4976 34.7177 19.4976 37.0587C19.4976 39.3998 19.6857 41.0891 20.0618 42.1269C20.438 43.1681 20.9082 43.6887 21.4725 43.6887C22.0367 43.6887 22.5069 43.1681 22.8831 42.1269C23.2592 41.0891 23.4473 39.3998 23.4473 37.0587C23.4473 34.7177 23.2592 33.0231 22.8831 31.9749C22.5069 30.9266 22.0367 30.4025 21.4725 30.4025ZM41.3339 29.8784C42.1991 29.8784 42.8799 29.978 43.3764 30.1772C43.8767 30.3798 44.2586 30.6296 44.5219 30.9266C44.804 31.2411 45.0109 31.6604 45.1425 32.1845C45.2742 32.7086 45.34 33.4162 45.34 34.3071V41.4088C45.34 42.1426 45.4566 42.6405 45.6898 42.9026C45.9268 43.1646 46.3369 43.2956 46.9199 43.2956V43.846C46.5437 43.8285 45.9739 43.8058 45.2102 43.7778C44.4504 43.7534 43.7037 43.7411 42.9702 43.7411C42.1802 43.7411 41.4091 43.7534 40.6568 43.7778C39.9045 43.8058 39.3402 43.8285 38.9641 43.846V43.2956C39.4531 43.2956 39.7916 43.1646 39.9797 42.9026C40.1678 42.6405 40.2618 42.1426 40.2618 41.4088V32.8921C40.2618 32.5252 40.2148 32.2194 40.1208 31.9749C40.0267 31.7303 39.88 31.5468 39.6806 31.4245C39.485 31.3022 39.218 31.2411 38.8794 31.2411C38.3528 31.2411 37.8826 31.4158 37.4688 31.7652C37.055 32.1146 36.8481 32.5688 36.8481 33.1279V41.4088C36.8481 42.1426 36.9459 42.6405 37.1415 42.9026C37.3409 43.1646 37.6757 43.2956 38.1459 43.2956V43.846C37.7885 43.8285 37.2619 43.8058 36.566 43.7778C35.8701 43.7534 35.1554 43.7411 34.4219 43.7411C33.6319 43.7411 32.8326 43.7534 32.0238 43.7778C31.2151 43.8058 30.6038 43.8285 30.19 43.846V43.2956C30.7731 43.2956 31.1812 43.1646 31.4144 42.9026C31.6514 42.6405 31.7699 42.1426 31.7699 41.4088V33.1017C31.7699 32.3155 31.6571 31.7338 31.4314 31.3564C31.2057 30.9825 30.7919 30.7956 30.19 30.7956V30.2453C30.7919 30.2977 31.375 30.3239 31.9392 30.3239C32.8796 30.3239 33.7579 30.2925 34.5742 30.2296C35.3943 30.1702 36.1522 30.0793 36.8481 29.957V31.8438C37.2995 31.145 37.9051 30.6419 38.665 30.3344C39.4286 30.0304 40.3182 29.8784 41.3339 29.8784ZM58.9609 29.8784C59.8261 29.8784 60.5088 29.978 61.0091 30.1772C61.5056 30.3798 61.8856 30.6296 62.1489 30.9266C62.431 31.2411 62.6379 31.6604 62.7695 32.1845C62.9012 32.7086 62.967 33.4162 62.967 34.3071V41.4088C62.967 42.1426 63.0855 42.6405 63.3225 42.9026C63.5557 43.1646 63.9639 43.2956 64.5469 43.2956V43.846C64.1708 43.8285 63.6028 43.8058 62.8429 43.7778C62.0793 43.7534 61.3307 43.7411 60.5972 43.7411C59.8073 43.7411 59.0361 43.7534 58.2838 43.7778C57.5315 43.8058 56.9672 43.8285 56.5911 43.846V43.2956C57.0801 43.2956 57.4186 43.1646 57.6067 42.9026C57.7948 42.6405 57.8888 42.1426 57.8888 41.4088V32.8921C57.8888 32.5252 57.8418 32.2194 57.7478 31.9749C57.6537 31.7303 57.5089 31.5468 57.3133 31.4245C57.1139 31.3022 56.845 31.2411 56.5064 31.2411C55.9798 31.2411 55.5096 31.4158 55.0958 31.7652C54.682 32.1146 54.4751 32.5688 54.4751 33.1279V41.4088C54.4751 42.1426 54.5748 42.6405 54.7742 42.9026C54.9698 43.1646 55.3027 43.2956 55.7729 43.2956V43.846C55.4156 43.8285 54.8889 43.8058 54.193 43.7778C53.4971 43.7534 52.7824 43.7411 52.0489 43.7411C51.2589 43.7411 50.4596 43.7534 49.6508 43.7778C48.8421 43.8058 48.2308 43.8285 47.8171 43.846V43.2956C48.4001 43.2956 48.8101 43.1646 49.0471 42.9026C49.2803 42.6405 49.3969 42.1426 49.3969 41.4088V33.1017C49.3969 32.3155 49.2841 31.7338 49.0584 31.3564C48.8327 30.9825 48.4189 30.7956 47.8171 30.7956V30.2453C48.4189 30.2977 49.002 30.3239 49.5662 30.3239C50.5066 30.3239 51.3868 30.2925 52.2069 30.2296C53.0232 30.1702 53.7792 30.0793 54.4751 29.957V31.8438C54.9265 31.145 55.534 30.6419 56.2977 30.3344C57.0575 30.0304 57.9453 29.8784 58.9609 29.8784ZM72.9824 29.8784C74.6375 29.8784 75.9409 30.3274 76.8926 31.2254C77.8405 32.1269 78.3145 33.6345 78.3145 35.7485H69.4841L69.4276 35.2505H74.1955C74.2143 34.3945 74.1767 33.6031 74.0827 32.8763C73.9886 32.1531 73.8382 31.573 73.6313 31.1363C73.4244 30.6995 73.1423 30.4811 72.7849 30.4811C72.2771 30.4811 71.8633 30.8515 71.5436 31.5923C71.2238 32.3365 71.0169 33.6083 70.9229 35.4078L71.0357 35.6174C71.0169 35.7921 71.0075 35.9668 71.0075 36.1415C71.0075 36.3162 71.0075 36.4997 71.0075 36.6919C71.0075 37.9148 71.173 38.8669 71.5041 39.5483C71.8313 40.2296 72.2451 40.7013 72.7454 40.9634C73.2419 41.2254 73.7441 41.3564 74.2519 41.3564C74.6281 41.3564 75.1359 41.2638 75.7754 41.0787C76.4149 40.897 77.0449 40.4043 77.6656 39.6007L78.1452 39.7579C77.9195 40.4567 77.5565 41.1503 77.0562 41.8386C76.5597 42.5304 75.9165 43.0982 75.1265 43.542C74.3366 43.9892 73.3774 44.2128 72.2489 44.2128C71.0451 44.2128 69.9505 43.9857 68.965 43.5315C67.9756 43.0773 67.1895 42.326 66.6064 41.2778C66.0234 40.2296 65.7318 38.8232 65.7318 37.0587C65.7318 35.3816 66.0516 34.0136 66.6911 32.9549C67.3305 31.8997 68.2013 31.1223 69.3035 30.6227C70.4019 30.1265 71.6282 29.8784 72.9824 29.8784ZM87.1449 29.8784C87.9725 29.8784 88.706 29.957 89.3455 30.1143C89.985 30.2715 90.4928 30.4549 90.8689 30.6646C91.3768 30.9441 91.7849 31.3145 92.0934 31.7757C92.4056 32.2404 92.5617 32.7785 92.5617 33.39C92.5617 34.1062 92.3078 34.709 91.8 35.1981C91.2921 35.6873 90.6433 35.9319 89.8533 35.9319C89.0258 35.9319 88.3863 35.7135 87.9349 35.2768C87.4835 34.84 87.2578 34.2722 87.2578 33.5734C87.2578 32.9095 87.4872 32.3452 87.9462 31.8805C88.4088 31.4193 88.9505 31.1101 89.5712 30.9528C89.4395 30.8655 89.2834 30.7904 89.1029 30.7275C88.9261 30.6681 88.706 30.6384 88.4427 30.6384C87.7656 30.6384 87.2145 30.8253 86.7895 31.1992C86.3682 31.5765 86.039 32.0709 85.802 32.6824C85.5688 33.2939 85.4052 33.949 85.3111 34.6478C85.2171 35.3466 85.1701 36.028 85.1701 36.6919C85.1701 37.9148 85.3488 38.8669 85.7061 39.5483C86.0635 40.2296 86.5149 40.7013 87.0603 40.9634C87.6057 41.2254 88.1512 41.3564 88.6966 41.3564C89.0728 41.3564 89.5806 41.2638 90.2201 41.0787C90.8595 40.897 91.4896 40.4043 92.1103 39.6007L92.5899 39.7579C92.3642 40.4567 92.0012 41.1503 91.5009 41.8386C91.0044 42.5304 90.3611 43.0982 89.5712 43.542C88.7812 43.9892 87.822 44.2128 86.6935 44.2128C85.4334 44.2128 84.2899 43.9857 83.2629 43.5315C82.2398 43.0773 81.4216 42.326 80.8085 41.2778C80.1991 40.2296 79.8944 38.8232 79.8944 37.0587C79.8944 35.3816 80.2141 34.0136 80.8536 32.9549C81.4931 31.8997 82.362 31.1223 83.4604 30.6227C84.5626 30.1265 85.7907 29.8784 87.1449 29.8784ZM100.348 26V30.2453H103.113V30.7694H100.348V41.6447C100.348 41.9766 100.414 42.216 100.546 42.3627C100.677 42.513 100.894 42.5881 101.195 42.5881C101.402 42.5881 101.646 42.5304 101.928 42.4151C102.21 42.3033 102.474 42.1077 102.718 41.8281L103.141 42.1426C102.746 42.7715 102.223 43.2729 101.573 43.6468C100.926 44.0242 100.113 44.2128 99.1351 44.2128C98.5145 44.2128 97.954 44.1395 97.4537 43.9927C96.9572 43.8425 96.549 43.6188 96.2293 43.3218C95.8155 42.9375 95.5522 42.4606 95.4393 41.891C95.3265 41.325 95.2701 40.5877 95.2701 39.6793V30.7694H93.1259V30.2453H95.2701V27.153C96.2669 27.153 97.1734 27.0604 97.9897 26.8753C98.8098 26.6936 99.5959 26.4018 100.348 26Z" fill="white"/>
</g>
</g>
</g>
</g>
</g>
</g>
</g>
<defs>
<clipPath id="clip0_3130_2305">
<rect width="103.144" height="18.2128" fill="white" transform="translate(0 26)"/>
</clipPath>
<clipPath id="clip1_3130_2305">
<rect width="103.144" height="18.2128" fill="white" transform="translate(0 26)"/>
</clipPath>
<clipPath id="clip2_3130_2305">
<rect width="103.144" height="18.2128" fill="white" transform="translate(0 26)"/>
</clipPath>
<clipPath id="clip3_3130_2305">
<rect width="103.144" height="18.2128" fill="white" transform="translate(0 26)"/>
</clipPath>
<clipPath id="clip4_3130_2305">
<rect width="103.144" height="18.2128" fill="white" transform="translate(0 26)"/>
</clipPath>
<clipPath id="clip5_3130_2305">
<rect width="103.144" height="18.2128" fill="white" transform="translate(0 26)"/>
</clipPath>
<clipPath id="clip6_3130_2305">
<rect width="103.144" height="18.2128" fill="white" transform="translate(0 26)"/>
</clipPath>
</defs>
</svg>
