<svg width="132" height="71" viewBox="0 0 132 71" fill="none" xmlns="http://www.w3.org/2000/svg">
<path d="M7.25055 30.204C8.07811 30.204 8.81163 30.2827 9.4511 30.4399C10.0906 30.5971 10.5984 30.7806 10.9746 30.9902C11.4824 31.2697 11.8924 31.6401 12.2046 32.1013C12.5131 32.566 12.6673 33.1041 12.6673 33.7156C12.6673 34.4319 12.4134 35.0346 11.9056 35.5238C11.3978 36.0129 10.7489 36.2575 9.95892 36.2575C9.13137 36.2575 8.49189 36.0391 8.04049 35.6024C7.5891 35.1656 7.3634 34.5978 7.3634 33.899C7.3634 33.2351 7.59474 32.6709 8.05742 32.2061C8.51634 31.7449 9.05613 31.4357 9.6768 31.2785C9.54515 31.1911 9.38904 31.116 9.20848 31.0531C9.03168 30.9937 8.81163 30.964 8.54831 30.964C7.87122 30.964 7.32202 31.1509 6.90072 31.5248C6.47565 31.9022 6.14651 32.3966 5.91329 33.008C5.6763 33.6195 5.51079 34.2746 5.41675 34.9734C5.32271 35.6723 5.27569 36.3536 5.27569 37.0175C5.27569 38.2404 5.45437 39.1925 5.81172 39.8739C6.16908 40.5552 6.62048 41.0269 7.16591 41.289C7.71135 41.551 8.25679 41.6821 8.80222 41.6821C9.17839 41.6821 9.68621 41.5895 10.3257 41.4043C10.9652 41.2226 11.5952 40.7299 12.2159 39.9263L12.6955 40.0835C12.4698 40.7823 12.1087 41.4759 11.6122 42.1642C11.1119 42.8561 10.4667 43.4239 9.6768 43.8676C8.88686 44.3148 7.92764 44.5385 6.79915 44.5385C5.53901 44.5385 4.39735 44.3113 3.37419 43.8571C2.34726 43.4029 1.5291 42.6517 0.919719 41.6034C0.306573 40.5552 0 39.1489 0 37.3844C0 35.7072 0.319739 34.3393 0.959217 33.2806C1.59869 32.2254 2.46951 31.4479 3.57167 30.9483C4.67007 30.4521 5.89636 30.204 7.25055 30.204ZM21.4695 30.204C22.9366 30.204 24.2099 30.4346 25.2895 30.8959C26.3728 31.3606 27.2154 32.117 27.8173 33.1653C28.4191 34.2135 28.7201 35.6198 28.7201 37.3844C28.7201 39.1489 28.4191 40.5552 27.8173 41.6034C27.2154 42.6517 26.3728 43.4029 25.2895 43.8571C24.2099 44.3113 22.9366 44.5385 21.4695 44.5385C20.0213 44.5385 18.7517 44.3113 17.6609 43.8571C16.57 43.4029 15.7236 42.6517 15.1218 41.6034C14.5199 40.5552 14.219 39.1489 14.219 37.3844C14.219 35.6198 14.5199 34.2135 15.1218 33.1653C15.7236 32.117 16.57 31.3606 17.6609 30.8959C18.7517 30.4346 20.0213 30.204 21.4695 30.204ZM21.4695 30.7282C20.9053 30.7282 20.4351 31.2523 20.0589 32.3005C19.6827 33.3487 19.4947 35.0433 19.4947 37.3844C19.4947 39.7254 19.6827 41.4148 20.0589 42.4525C20.4351 43.4937 20.9053 44.0143 21.4695 44.0143C22.0338 44.0143 22.504 43.4937 22.8801 42.4525C23.2563 41.4148 23.4444 39.7254 23.4444 37.3844C23.4444 35.0433 23.2563 33.3487 22.8801 32.3005C22.504 31.2523 22.0338 30.7282 21.4695 30.7282ZM41.3309 30.204C42.1961 30.204 42.877 30.3036 43.3735 30.5028C43.8738 30.7054 44.2556 30.9553 44.5189 31.2523C44.8011 31.5667 45.0079 31.986 45.1396 32.5101C45.2713 33.0342 45.3371 33.7418 45.3371 34.6328V41.7345C45.3371 42.4682 45.4537 42.9661 45.6869 43.2282C45.9239 43.4902 46.3339 43.6213 46.917 43.6213V44.1716C46.5408 44.1541 45.9709 44.1314 45.2073 44.1034C44.4475 44.079 43.7008 44.0668 42.9673 44.0668C42.1773 44.0668 41.4062 44.079 40.6539 44.1034C39.9015 44.1314 39.3373 44.1541 38.9611 44.1716V43.6213C39.4501 43.6213 39.7887 43.4902 39.9768 43.2282C40.1648 42.9661 40.2589 42.4682 40.2589 41.7345V33.2177C40.2589 32.8508 40.2119 32.5451 40.1178 32.3005C40.0238 32.0559 39.8771 31.8725 39.6777 31.7502C39.4821 31.6279 39.215 31.5667 38.8765 31.5667C38.3499 31.5667 37.8797 31.7414 37.4659 32.0908C37.0521 32.4402 36.8452 32.8945 36.8452 33.4535V41.7345C36.8452 42.4682 36.943 42.9661 37.1386 43.2282C37.338 43.4902 37.6728 43.6213 38.143 43.6213V44.1716C37.7856 44.1541 37.259 44.1314 36.5631 44.1034C35.8672 44.079 35.1525 44.0668 34.4189 44.0668C33.629 44.0668 32.8297 44.079 32.0209 44.1034C31.2122 44.1314 30.6009 44.1541 30.1871 44.1716V43.6213C30.7702 43.6213 31.1783 43.4902 31.4115 43.2282C31.6485 42.9661 31.767 42.4682 31.767 41.7345V33.4273C31.767 32.6412 31.6541 32.0594 31.4284 31.682C31.2028 31.3082 30.789 31.1212 30.1871 31.1212V30.5709C30.789 30.6233 31.372 30.6495 31.9363 30.6495C32.8767 30.6495 33.755 30.6181 34.5713 30.5552C35.3913 30.4958 36.1493 30.4049 36.8452 30.2827V32.1695C37.2966 31.4706 37.9022 30.9675 38.6621 30.66C39.4257 30.356 40.3153 30.204 41.3309 30.204ZM58.958 30.204C59.8231 30.204 60.5059 30.3036 61.0062 30.5028C61.5027 30.7054 61.8826 30.9553 62.1459 31.2523C62.4281 31.5667 62.635 31.986 62.7666 32.5101C62.8983 33.0342 62.9641 33.7418 62.9641 34.6328V41.7345C62.9641 42.4682 63.0826 42.9661 63.3196 43.2282C63.5528 43.4902 63.9609 43.6213 64.544 43.6213V44.1716C64.1678 44.1541 63.5998 44.1314 62.84 44.1034C62.0764 44.079 61.3278 44.0668 60.5943 44.0668C59.8043 44.0668 59.0332 44.079 58.2809 44.1034C57.5285 44.1314 56.9643 44.1541 56.5881 44.1716V43.6213C57.0771 43.6213 57.4157 43.4902 57.6038 43.2282C57.7919 42.9661 57.8859 42.4682 57.8859 41.7345V33.2177C57.8859 32.8508 57.8389 32.5451 57.7448 32.3005C57.6508 32.0559 57.506 31.8725 57.3104 31.7502C57.111 31.6279 56.842 31.5667 56.5035 31.5667C55.9769 31.5667 55.5067 31.7414 55.0929 32.0908C54.6791 32.4402 54.4722 32.8945 54.4722 33.4535V41.7345C54.4722 42.4682 54.5719 42.9661 54.7713 43.2282C54.9669 43.4902 55.2998 43.6213 55.77 43.6213V44.1716C55.4126 44.1541 54.886 44.1314 54.1901 44.1034C53.4942 44.079 52.7795 44.0668 52.046 44.0668C51.256 44.0668 50.4567 44.079 49.6479 44.1034C48.8392 44.1314 48.2279 44.1541 47.8141 44.1716V43.6213C48.3972 43.6213 48.8072 43.4902 49.0442 43.2282C49.2774 42.9661 49.394 42.4682 49.394 41.7345V33.4273C49.394 32.6412 49.2812 32.0594 49.0555 31.682C48.8298 31.3082 48.416 31.1212 47.8141 31.1212V30.5709C48.416 30.6233 48.999 30.6495 49.5633 30.6495C50.5037 30.6495 51.3839 30.6181 52.2039 30.5552C53.0202 30.4958 53.7763 30.4049 54.4722 30.2827V32.1695C54.9236 31.4706 55.5311 30.9675 56.2947 30.66C57.0546 30.356 57.9423 30.204 58.958 30.204ZM72.9795 30.204C74.6346 30.204 75.938 30.653 76.8897 31.551C77.8376 32.4525 78.3116 33.9602 78.3116 36.0741H69.4811L69.4247 35.5762H74.1926C74.2114 34.7201 74.1738 33.9287 74.0797 33.202C73.9857 32.4787 73.8352 31.8987 73.6283 31.4619C73.4214 31.0251 73.1393 30.8068 72.782 30.8068C72.2742 30.8068 71.8604 31.1771 71.5406 31.9179C71.2209 32.6621 71.014 33.934 70.92 35.7334L71.0328 35.943C71.014 36.1178 71.0046 36.2925 71.0046 36.4672C71.0046 36.6419 71.0046 36.8253 71.0046 37.0175C71.0046 38.2404 71.1701 39.1925 71.5011 39.8739C71.8284 40.5552 72.2422 41.0269 72.7425 41.289C73.239 41.551 73.7412 41.6821 74.249 41.6821C74.6252 41.6821 75.133 41.5895 75.7725 41.4043C76.4119 41.2226 77.042 40.7299 77.6627 39.9263L78.1423 40.0835C77.9166 40.7823 77.5536 41.4759 77.0533 42.1642C76.5568 42.8561 75.9135 43.4239 75.1236 43.8676C74.3336 44.3148 73.3744 44.5385 72.2459 44.5385C71.0422 44.5385 69.9476 44.3113 68.962 43.8571C67.9727 43.4029 67.1865 42.6517 66.6035 41.6034C66.0204 40.5552 65.7289 39.1489 65.7289 37.3844C65.7289 35.7072 66.0486 34.3393 66.6881 33.2806C67.3276 32.2254 68.1984 31.4479 69.3006 30.9483C70.399 30.4521 71.6253 30.204 72.9795 30.204ZM87.142 30.204C87.9696 30.204 88.7031 30.2827 89.3426 30.4399C89.982 30.5971 90.4899 30.7806 90.866 30.9902C91.3738 31.2697 91.782 31.6401 92.0904 32.1013C92.4027 32.566 92.5588 33.1041 92.5588 33.7156C92.5588 34.4319 92.3048 35.0346 91.797 35.5238C91.2892 36.0129 90.6403 36.2575 89.8504 36.2575C89.0228 36.2575 88.3833 36.0391 87.9319 35.6024C87.4805 35.1656 87.2549 34.5978 87.2549 33.899C87.2549 33.2351 87.4843 32.6709 87.9432 32.2061C88.4059 31.7449 88.9476 31.4357 89.5683 31.2785C89.4366 31.1911 89.2805 31.116 89.0999 31.0531C88.9231 30.9937 88.7031 30.964 88.4398 30.964C87.7627 30.964 87.2116 31.1509 86.7865 31.5248C86.3652 31.9022 86.0361 32.3966 85.7991 33.008C85.5659 33.6195 85.4023 34.2746 85.3082 34.9734C85.2142 35.6723 85.1671 36.3536 85.1671 37.0175C85.1671 38.2404 85.3458 39.1925 85.7032 39.8739C86.0605 40.5552 86.5119 41.0269 87.0574 41.289C87.6028 41.551 88.1482 41.6821 88.6937 41.6821C89.0698 41.6821 89.5777 41.5895 90.2171 41.4043C90.8566 41.2226 91.4867 40.7299 92.1074 39.9263L92.587 40.0835C92.3613 40.7823 91.9983 41.4759 91.498 42.1642C91.0014 42.8561 90.3582 43.4239 89.5683 43.8676C88.7783 44.3148 87.8191 44.5385 86.6906 44.5385C85.4305 44.5385 84.2869 44.3113 83.26 43.8571C82.2368 43.4029 81.4187 42.6517 80.8055 41.6034C80.1962 40.5552 79.8915 39.1489 79.8915 37.3844C79.8915 35.7072 80.2112 34.3393 80.8507 33.2806C81.4901 32.2254 82.3591 31.4479 83.4575 30.9483C84.5596 30.4521 85.7878 30.204 87.142 30.204ZM100.345 26.3256V30.5709H103.11V31.095H100.345V41.9703C100.345 42.3023 100.411 42.5416 100.543 42.6884C100.674 42.8386 100.891 42.9137 101.192 42.9137C101.399 42.9137 101.643 42.8561 101.925 42.7408C102.207 42.629 102.471 42.4333 102.715 42.1538L103.138 42.4682C102.743 43.0972 102.221 43.5986 101.57 43.9724C100.923 44.3498 100.11 44.5385 99.1322 44.5385C98.5115 44.5385 97.9511 44.4651 97.4508 44.3183C96.9542 44.1681 96.5461 43.9445 96.2263 43.6475C95.8126 43.2631 95.5493 42.7862 95.4364 42.2167C95.3236 41.6506 95.2671 40.9134 95.2671 40.0049V31.095H93.123V30.5709H95.2671V27.4787C96.264 27.4787 97.1705 27.3861 97.9868 27.2009C98.8068 27.0192 99.593 26.7274 100.345 26.3256Z" fill="#7C6DFC"/>
<path d="M55.4736 23.9739V0H131.764V70.8641H55.4736V46.8902H57.2417V69.2214H129.996V1.64271H57.2417V23.9739H55.4736Z" fill="#7C6DFC"/>
</svg>
